<svg xmlns="http://www.w3.org/2000/svg" style="display: none">
  <defs>
    <symbol width="42" height="52" viewBox="0 0 42 52" id="doc-fill">
      <path fill="#313457" d="M33.118125,51.6953125 C38.2978125,51.6953125 41.0634375,48.90625 41.0634375,43.703125 L41.0634375,22.984375 L23.0165625,22.984375 C20.13375,22.984375 18.7275,21.578125 18.7275,18.71875 L18.7275,0.5078125 L8.086875,0.5078125 C2.9071875,0.5078125 0.1415625,3.3203125 0.1415625,8.5234375 L0.1415625,43.703125 C0.1415625,48.9296875 2.9071875,51.6953125 8.086875,51.6953125 L33.118125,51.6953125 Z M40.8290625,19.375 C40.711875,18.25 39.8446875,17.1484375 38.555625,15.8359375 L25.8525,2.96875 C24.6103125,1.7265625 23.4853125,0.859375 22.3603125,0.7421875 L22.3603125,17.96875 C22.3603125,18.90625 22.8290625,19.375 23.7665625,19.375 L40.8290625,19.375 Z"/>
    </symbol>
    <symbol width="42" height="52" viewBox="0 0 42 52" id="doc">
      <path fill="#313457" d="M33.118125,51.6953125 C38.2978125,51.6953125 41.0634375,48.90625 41.0634375,43.703125 L41.0634375,22.4453125 C41.0634375,18.9765625 40.57125,17.3125 38.3915625,15.0859375 L26.649375,3.1796875 C24.5165625,1.0234375 22.7353125,0.5078125 19.5478125,0.5078125 L8.086875,0.5078125 C2.9071875,0.5078125 0.1415625,3.3203125 0.1415625,8.5234375 L0.1415625,43.703125 C0.1415625,48.9296875 2.9071875,51.6953125 8.086875,51.6953125 L33.118125,51.6953125 Z M32.555625,46.328125 L8.649375,46.328125 C6.5165625,46.328125 5.50875,45.25 5.50875,43.2109375 L5.50875,8.9921875 C5.50875,7 6.5165625,5.875 8.649375,5.875 L18.2353125,5.875 L18.2353125,17.9921875 C18.2353125,21.71875 20.04,23.5 23.743125,23.5 L35.69625,23.5 L35.69625,43.2109375 C35.69625,45.25 34.665,46.328125 32.555625,46.328125 Z M35.1571875,18.9765625 L24.1884375,18.9765625 C23.2040625,18.9765625 22.75875,18.53125 22.75875,17.546875 L22.75875,6.4375 L35.1571875,18.9765625 Z"/>
    </symbol>
    <symbol width="48" height="53" viewBox="0 0 48 53" id="trash-fill">
      <path fill="#313457" d="M34.5634375,52.7734375 C38.0321875,52.7734375 40.07125,50.96875 40.2353125,47.4765625 L41.7353125,14.1015625 L45.1103125,14.1015625 C46.44625,14.1015625 47.4540625,13.09375 47.4540625,11.7578125 C47.4540625,10.4453125 46.44625,9.4375 45.1103125,9.4375 L34.9384375,9.4375 L34.9384375,6.53125 C34.9384375,2.734375 32.2665625,0.2734375 28.0009375,0.2734375 L19.9384375,0.2734375 C15.649375,0.2734375 13.0009375,2.734375 13.0009375,6.53125 L13.0009375,9.4375 L2.8290625,9.4375 C1.493125,9.4375 0.461875,10.4453125 0.461875,11.7578125 C0.461875,13.09375 1.493125,14.1015625 2.8290625,14.1015625 L6.2040625,14.1015625 L7.7275,47.4765625 C7.8915625,50.96875 9.9071875,52.7734375 13.3759375,52.7734375 L34.5634375,52.7734375 Z M30.0634375,9.4375 L17.899375,9.4375 L17.899375,6.71875 C17.9228125,5.453125 18.8603125,4.5625 20.2196875,4.5625 L27.7196875,4.5625 C29.1025,4.5625 30.0165625,5.453125 30.04,6.71875 L30.0634375,9.4375 Z M15.7665625,46.09375 C14.8290625,46.09375 14.1259375,45.296875 14.1025,44.1953125 L13.1884375,19.09375 C13.165,18.015625 13.915,17.21875 14.8525,17.21875 C15.79,17.21875 16.5634375,18.0625 16.586875,19.09375 L17.4540625,44.171875 C17.4775,45.2265625 16.7509375,46.09375 15.7665625,46.09375 Z M23.9696875,46.09375 C23.055625,46.09375 22.25875,45.2265625 22.25875,44.1953125 L22.2353125,19.09375 C22.2353125,18.0625 23.055625,17.21875 23.9696875,17.21875 C24.88375,17.21875 25.7040625,18.0625 25.7040625,19.09375 L25.7040625,44.1953125 C25.7040625,45.2265625 24.88375,46.09375 23.9696875,46.09375 Z M32.1728125,46.09375 C31.1884375,46.09375 30.461875,45.2265625 30.50875,44.171875 L31.3525,19.09375 C31.399375,18.0625 32.1728125,17.21875 33.086875,17.21875 C34.0478125,17.21875 34.7978125,18.0390625 34.774375,19.09375 L33.836875,44.1953125 C33.8134375,45.296875 33.1103125,46.09375 32.1728125,46.09375 Z"/>
    </symbol>
    <symbol width="48" height="54" viewBox="0 0 48 54" id="trash">
      <path fill="#313457" d="M34.774375,53.6171875 C38.57125,53.6171875 40.961875,51.4140625 41.149375,47.59375 L42.69625,14.1015625 L45.1103125,14.1015625 C46.44625,14.1015625 47.4540625,13.09375 47.4540625,11.7578125 C47.4540625,10.4453125 46.44625,9.4375 45.1103125,9.4375 L34.915,9.4375 L34.915,6.53125 C34.915,2.734375 32.2665625,0.2734375 27.9775,0.2734375 L19.915,0.2734375 C15.6259375,0.2734375 12.9775,2.734375 12.9775,6.53125 L12.9775,9.4375 L2.8290625,9.4375 C1.493125,9.4375 0.461875,10.4453125 0.461875,11.7578125 C0.461875,13.09375 1.493125,14.1015625 2.8290625,14.1015625 L5.2196875,14.1015625 L6.79,47.6171875 C6.9775,51.4375 9.3446875,53.6171875 13.1884375,53.6171875 L34.774375,53.6171875 Z M30.04,9.4375 L17.8759375,9.4375 L17.899375,6.71875 C17.899375,5.453125 18.836875,4.5625 20.19625,4.5625 L27.7196875,4.5625 C29.0790625,4.5625 30.0165625,5.453125 30.0165625,6.71875 L30.04,9.4375 Z M34.1415625,48.90625 L13.774375,48.90625 C12.50875,48.90625 11.6415625,47.9921875 11.57125,46.609375 L10.0478125,14.1015625 L37.82125,14.1015625 L36.3446875,46.609375 C36.2978125,48.015625 35.430625,48.90625 34.1415625,48.90625 Z M30.836875,45.25 C31.774375,45.25 32.5009375,44.453125 32.524375,43.375 L33.2275,19.796875 C33.274375,18.71875 32.524375,17.8984375 31.586875,17.8984375 C30.649375,17.8984375 29.899375,18.7421875 29.8759375,19.7734375 L29.1728125,43.3515625 C29.1259375,44.40625 29.8759375,45.25 30.836875,45.25 Z M17.0790625,45.25 C18.0634375,45.25 18.79,44.40625 18.7665625,43.3515625 L18.0634375,19.7734375 C18.0165625,18.7421875 17.2665625,17.8984375 16.3525,17.8984375 C15.3915625,17.8984375 14.665,18.71875 14.711875,19.796875 L15.415,43.375 C15.4384375,44.453125 16.1415625,45.25 17.0790625,45.25 Z M23.9696875,45.25 C24.88375,45.25 25.6571875,44.40625 25.6571875,43.375 L25.6571875,19.7734375 C25.6571875,18.7421875 24.9071875,17.8984375 23.9696875,17.8984375 C23.0321875,17.8984375 22.25875,18.7421875 22.25875,19.7734375 L22.25875,43.375 C22.25875,44.40625 23.0321875,45.25 23.9696875,45.25 Z"/>
    </symbol>
  </defs>
</svg>
