<svg xmlns="http://www.w3.org/2000/svg" width="42" height="52" viewBox="0 0 42 52">
  <path fill="#313457" d="M33.118125,51.6953125 C38.2978125,51.6953125 41.0634375,48.90625 41.0634375,43.703125 L41.0634375,22.984375 L23.0165625,22.984375 C20.13375,22.984375 18.7275,21.578125 18.7275,18.71875 L18.7275,0.5078125 L8.086875,0.5078125 C2.9071875,0.5078125 0.1415625,3.3203125 0.1415625,8.5234375 L0.1415625,43.703125 C0.1415625,48.9296875 2.9071875,51.6953125 8.086875,51.6953125 L33.118125,51.6953125 Z M40.8290625,19.375 C40.711875,18.25 39.8446875,17.1484375 38.555625,15.8359375 L25.8525,2.96875 C24.6103125,1.7265625 23.4853125,0.859375 22.3603125,0.7421875 L22.3603125,17.96875 C22.3603125,18.90625 22.8290625,19.375 23.7665625,19.375 L40.8290625,19.375 Z"/>
</svg>
