<svg xmlns="http://www.w3.org/2000/svg" width="42" height="52" viewBox="0 0 42 52">
  <path fill="#313457" d="M33.118125,51.6953125 C38.2978125,51.6953125 41.0634375,48.90625 41.0634375,43.703125 L41.0634375,22.4453125 C41.0634375,18.9765625 40.57125,17.3125 38.3915625,15.0859375 L26.649375,3.1796875 C24.5165625,1.0234375 22.7353125,0.5078125 19.5478125,0.5078125 L8.086875,0.5078125 C2.9071875,0.5078125 0.1415625,3.3203125 0.1415625,8.5234375 L0.1415625,43.703125 C0.1415625,48.9296875 2.9071875,51.6953125 8.086875,51.6953125 L33.118125,51.6953125 Z M32.555625,46.328125 L8.649375,46.328125 C6.5165625,46.328125 5.50875,45.25 5.50875,43.2109375 L5.50875,8.9921875 C5.50875,7 6.5165625,5.875 8.649375,5.875 L18.2353125,5.875 L18.2353125,17.9921875 C18.2353125,21.71875 20.04,23.5 23.743125,23.5 L35.69625,23.5 L35.69625,43.2109375 C35.69625,45.25 34.665,46.328125 32.555625,46.328125 Z M35.1571875,18.9765625 L24.1884375,18.9765625 C23.2040625,18.9765625 22.75875,18.53125 22.75875,17.546875 L22.75875,6.4375 L35.1571875,18.9765625 Z"/>
</svg>
