<svg xmlns="http://www.w3.org/2000/svg" width="48" height="54" viewBox="0 0 48 54">
  <path fill="#313457" d="M34.774375,53.6171875 C38.57125,53.6171875 40.961875,51.4140625 41.149375,47.59375 L42.69625,14.1015625 L45.1103125,14.1015625 C46.44625,14.1015625 47.4540625,13.09375 47.4540625,11.7578125 C47.4540625,10.4453125 46.44625,9.4375 45.1103125,9.4375 L34.915,9.4375 L34.915,6.53125 C34.915,2.734375 32.2665625,0.2734375 27.9775,0.2734375 L19.915,0.2734375 C15.6259375,0.2734375 12.9775,2.734375 12.9775,6.53125 L12.9775,9.4375 L2.8290625,9.4375 C1.493125,9.4375 0.461875,10.4453125 0.461875,11.7578125 C0.461875,13.09375 1.493125,14.1015625 2.8290625,14.1015625 L5.2196875,14.1015625 L6.79,47.6171875 C6.9775,51.4375 9.3446875,53.6171875 13.1884375,53.6171875 L34.774375,53.6171875 Z M30.04,9.4375 L17.8759375,9.4375 L17.899375,6.71875 C17.899375,5.453125 18.836875,4.5625 20.19625,4.5625 L27.7196875,4.5625 C29.0790625,4.5625 30.0165625,5.453125 30.0165625,6.71875 L30.04,9.4375 Z M34.1415625,48.90625 L13.774375,48.90625 C12.50875,48.90625 11.6415625,47.9921875 11.57125,46.609375 L10.0478125,14.1015625 L37.82125,14.1015625 L36.3446875,46.609375 C36.2978125,48.015625 35.430625,48.90625 34.1415625,48.90625 Z M30.836875,45.25 C31.774375,45.25 32.5009375,44.453125 32.524375,43.375 L33.2275,19.796875 C33.274375,18.71875 32.524375,17.8984375 31.586875,17.8984375 C30.649375,17.8984375 29.899375,18.7421875 29.8759375,19.7734375 L29.1728125,43.3515625 C29.1259375,44.40625 29.8759375,45.25 30.836875,45.25 Z M17.0790625,45.25 C18.0634375,45.25 18.79,44.40625 18.7665625,43.3515625 L18.0634375,19.7734375 C18.0165625,18.7421875 17.2665625,17.8984375 16.3525,17.8984375 C15.3915625,17.8984375 14.665,18.71875 14.711875,19.796875 L15.415,43.375 C15.4384375,44.453125 16.1415625,45.25 17.0790625,45.25 Z M23.9696875,45.25 C24.88375,45.25 25.6571875,44.40625 25.6571875,43.375 L25.6571875,19.7734375 C25.6571875,18.7421875 24.9071875,17.8984375 23.9696875,17.8984375 C23.0321875,17.8984375 22.25875,18.7421875 22.25875,19.7734375 L22.25875,43.375 C22.25875,44.40625 23.0321875,45.25 23.9696875,45.25 Z"/>
</svg>
