<svg xmlns="http://www.w3.org/2000/svg" width="48" height="53" viewBox="0 0 48 53">
  <path fill="#313457" d="M34.5634375,52.7734375 C38.0321875,52.7734375 40.07125,50.96875 40.2353125,47.4765625 L41.7353125,14.1015625 L45.1103125,14.1015625 C46.44625,14.1015625 47.4540625,13.09375 47.4540625,11.7578125 C47.4540625,10.4453125 46.44625,9.4375 45.1103125,9.4375 L34.9384375,9.4375 L34.9384375,6.53125 C34.9384375,2.734375 32.2665625,0.2734375 28.0009375,0.2734375 L19.9384375,0.2734375 C15.649375,0.2734375 13.0009375,2.734375 13.0009375,6.53125 L13.0009375,9.4375 L2.8290625,9.4375 C1.493125,9.4375 0.461875,10.4453125 0.461875,11.7578125 C0.461875,13.09375 1.493125,14.1015625 2.8290625,14.1015625 L6.2040625,14.1015625 L7.7275,47.4765625 C7.8915625,50.96875 9.9071875,52.7734375 13.3759375,52.7734375 L34.5634375,52.7734375 Z M30.0634375,9.4375 L17.899375,9.4375 L17.899375,6.71875 C17.9228125,5.453125 18.8603125,4.5625 20.2196875,4.5625 L27.7196875,4.5625 C29.1025,4.5625 30.0165625,5.453125 30.04,6.71875 L30.0634375,9.4375 Z M15.7665625,46.09375 C14.8290625,46.09375 14.1259375,45.296875 14.1025,44.1953125 L13.1884375,19.09375 C13.165,18.015625 13.915,17.21875 14.8525,17.21875 C15.79,17.21875 16.5634375,18.0625 16.586875,19.09375 L17.4540625,44.171875 C17.4775,45.2265625 16.7509375,46.09375 15.7665625,46.09375 Z M23.9696875,46.09375 C23.055625,46.09375 22.25875,45.2265625 22.25875,44.1953125 L22.2353125,19.09375 C22.2353125,18.0625 23.055625,17.21875 23.9696875,17.21875 C24.88375,17.21875 25.7040625,18.0625 25.7040625,19.09375 L25.7040625,44.1953125 C25.7040625,45.2265625 24.88375,46.09375 23.9696875,46.09375 Z M32.1728125,46.09375 C31.1884375,46.09375 30.461875,45.2265625 30.50875,44.171875 L31.3525,19.09375 C31.399375,18.0625 32.1728125,17.21875 33.086875,17.21875 C34.0478125,17.21875 34.7978125,18.0390625 34.774375,19.09375 L33.836875,44.1953125 C33.8134375,45.296875 33.1103125,46.09375 32.1728125,46.09375 Z"/>
</svg>
